<?xml version="1.0" standalone="no"?>
<!DOCTYPE svg PUBLIC "-//W3C//DTD SVG 20010904//EN"
  "http://www.w3.org/TR/2001/REC-SVG-20010904/DTD/svg10.dtd">
<svg version="1.0" xmlns="http://www.w3.org/2000/svg"
     width="512.000000pt" height="512.000000pt" viewBox="0 0 512.000000 512.000000"
     preserveAspectRatio="xMidYMid meet">

  <g transform="translate(0.000000,512.000000) scale(0.100000,-0.100000)"
     fill="#25D366" stroke="none">
    <path d="M411 5109 c-205 -26 -373 -199 -401 -409 -13 -102 -13 -4178 0 -4280
28 -215 195 -382 410 -410 102 -13 4178 -13 4280 0 215 28 382 195 410 410 13
102 13 4178 0 4280 -28 215 -195 382 -410 410 -93 12 -4196 11 -4289 -1z
m2472 -978 c556 -120 997 -508 1181 -1038 173 -501 80 -1073 -243 -1490 -332
-429 -863 -663 -1395 -615 -157 14 -326 54 -453 107 -48 20 -99 39 -113 42
-14 2 -198 -36 -409 -86 -211 -50 -399 -91 -417 -91 -25 0 -38 7 -50 25 -16
25 -13 43 69 444 l86 418 -45 107 c-55 129 -98 293 -115 436 -15 134 -6 364
20 492 128 630 611 1117 1236 1247 144 30 141 29 355 26 154 -2 216 -7 293
-24z"/>
    <path d="M2370 3795 c-405 -68 -737 -312 -921 -676 -40 -79 -93 -243 -110
-339 -19 -105 -17 -325 4 -431 24 -122 50 -198 114 -330 l55 -116 -50 -244
c-27 -134 -49 -245 -47 -247 1 -2 110 22 241 53 l237 57 106 -50 c199 -94 363
-132 567 -132 599 0 1109 432 1215 1030 17 95 17 312 0 410 -105 597 -628
1035 -1231 1029 -58 -1 -139 -7 -180 -14z m-271 -470 c17 -8 38 -34 51 -62 51
-109 129 -290 135 -313 8 -35 -7 -71 -61 -141 -64 -83 -66 -109 -14 -186 83
-125 385 -385 497 -429 59 -23 84 -13 163 61 67 63 84 71 140 66 44 -4 332
-90 357 -107 33 -21 56 -78 47 -118 -8 -40 -79 -140 -139 -195 -25 -23 -72
-55 -103 -69 -54 -25 -66 -27 -202 -27 -137 1 -150 2 -239 33 -171 59 -330
158 -511 316 -235 206 -402 446 -446 643 -11 51 -15 104 -12 171 3 86 7 104
36 157 34 62 66 100 145 173 39 35 53 42 87 42 23 0 54 -7 69 -15z"/>
  </g>
</svg>
